REM DIRINDEX 1\5,1\2\6,1\2\7,1\3\8,1\3\9,1\4\10,1\4\11,1\4\12
REM DIRNAME cjc026,folder01,folder02,folder03,folder04,folder05,folder06,folder07,folder08,folder09,folder10,folder11
TITLE ""
FILE "EJE_DB3000_5th_3B_18.mp3" MP3
  TRACK 01 AUDIO
    TITLE "0:"
    INDEX 01 00:00:00
  TRACK 02 AUDIO
    TITLE "10:cjc026_08862"
    INDEX 01 00:00:08
  TRACK 03 AUDIO
    TITLE "0:"
    INDEX 01 00:01:22
  TRACK 04 AUDIO
    TITLE "11:cjc026_08863"
    INDEX 01 00:01:57
  TRACK 05 AUDIO
    TITLE "0:"
    INDEX 01 00:03:20
  TRACK 06 AUDIO
    TITLE "12:cjc026_08864"
    INDEX 01 00:03:55
  TRACK 07 AUDIO
    TITLE "0:"
    INDEX 01 00:04:67
  TRACK 08 AUDIO
    TITLE "10:cjc026_08865"
    INDEX 01 00:05:30
  TRACK 09 AUDIO
    TITLE "0:"
    INDEX 01 00:06:44
  TRACK 10 AUDIO
    TITLE "11:cjc026_08866"
    INDEX 01 00:07:04
  TRACK 11 AUDIO
    TITLE "0:"
    INDEX 01 00:08:29
  TRACK 12 AUDIO
    TITLE "12:cjc026_08867"
    INDEX 01 00:08:61
  TRACK 13 AUDIO
    TITLE "0:"
    INDEX 01 00:10:03
  TRACK 14 AUDIO
    TITLE "10:cjc026_08868"
    INDEX 01 00:10:41
  TRACK 15 AUDIO
    TITLE "0:"
    INDEX 01 00:11:52
  TRACK 16 AUDIO
    TITLE "11:cjc026_08869"
    INDEX 01 00:12:12
  TRACK 17 AUDIO
    TITLE "0:"
    INDEX 01 00:13:67
  TRACK 18 AUDIO
    TITLE "12:cjc026_08870"
    INDEX 01 00:14:30
  TRACK 19 AUDIO
    TITLE "0:"
    INDEX 01 00:15:36
  TRACK 20 AUDIO
    TITLE "10:cjc026_08871"
    INDEX 01 00:15:73
  TRACK 21 AUDIO
    TITLE "0:"
    INDEX 01 00:17:31
  TRACK 22 AUDIO
    TITLE "11:cjc026_08872"
    INDEX 01 00:17:69
  TRACK 23 AUDIO
    TITLE "0:"
    INDEX 01 00:19:33
  TRACK 24 AUDIO
    TITLE "12:cjc026_08873"
    INDEX 01 00:19:68
  TRACK 25 AUDIO
    TITLE "0:"
    INDEX 01 00:21:28
  TRACK 26 AUDIO
    TITLE "10:cjc026_08874"
    INDEX 01 00:21:63
  TRACK 27 AUDIO
    TITLE "0:"
    INDEX 01 00:23:13
  TRACK 28 AUDIO
    TITLE "11:cjc026_08875"
    INDEX 01 00:23:51
  TRACK 29 AUDIO
    TITLE "0:"
    INDEX 01 00:25:15
  TRACK 30 AUDIO
    TITLE "12:cjc026_08876"
    INDEX 01 00:25:50
  TRACK 31 AUDIO
    TITLE "0:"
    INDEX 01 00:27:00
  TRACK 32 AUDIO
    TITLE "10:cjc026_08877"
    INDEX 01 00:27:40
  TRACK 33 AUDIO
    TITLE "0:"
    INDEX 01 00:28:60
  TRACK 34 AUDIO
    TITLE "11:cjc026_08878"
    INDEX 01 00:29:22
  TRACK 35 AUDIO
    TITLE "0:"
    INDEX 01 00:30:61
  TRACK 36 AUDIO
    TITLE "12:cjc026_08879"
    INDEX 01 00:31:24
  TRACK 37 AUDIO
    TITLE "0:"
    INDEX 01 00:32:40
  TRACK 38 AUDIO
    TITLE "10:cjc026_08880"
    INDEX 01 00:33:03
  TRACK 39 AUDIO
    TITLE "0:"
    INDEX 01 00:34:25
  TRACK 40 AUDIO
    TITLE "11:cjc026_08881"
    INDEX 01 00:34:60
  TRACK 41 AUDIO
    TITLE "0:"
    INDEX 01 00:36:32
  TRACK 42 AUDIO
    TITLE "12:cjc026_08882"
    INDEX 01 00:36:67
  TRACK 43 AUDIO
    TITLE "0:"
    INDEX 01 00:38:17
  TRACK 44 AUDIO
    TITLE "10:cjc026_08883"
    INDEX 01 00:38:52
  TRACK 45 AUDIO
    TITLE "0:"
    INDEX 01 00:40:02
  TRACK 46 AUDIO
    TITLE "11:cjc026_08884"
    INDEX 01 00:40:40
  TRACK 47 AUDIO
    TITLE "0:"
    INDEX 01 00:41:54
  TRACK 48 AUDIO
    TITLE "12:cjc026_08885"
    INDEX 01 00:42:14
  TRACK 49 AUDIO
    TITLE "0:"
    INDEX 01 00:43:39
  TRACK 50 AUDIO
    TITLE "10:cjc026_08886"
    INDEX 01 00:43:74
  TRACK 51 AUDIO
    TITLE "0:"
    INDEX 01 00:45:21
  TRACK 52 AUDIO
    TITLE "11:cjc026_08887"
    INDEX 01 00:45:56
  TRACK 53 AUDIO
    TITLE "0:"
    INDEX 01 00:46:68
  TRACK 54 AUDIO
    TITLE "12:cjc026_08888"
    INDEX 01 00:47:30
  TRACK 55 AUDIO
    TITLE "0:"
    INDEX 01 00:48:53
  TRACK 56 AUDIO
    TITLE "10:cjc026_08889"
    INDEX 01 00:49:13
  TRACK 57 AUDIO
    TITLE "0:"
    INDEX 01 00:50:27
  TRACK 58 AUDIO
    TITLE "11:cjc026_08890"
    INDEX 01 00:50:62
  TRACK 59 AUDIO
    TITLE "0:"
    INDEX 01 00:52:17
  TRACK 60 AUDIO
    TITLE "12:cjc026_08891"
    INDEX 01 00:52:52
  TRACK 61 AUDIO
    TITLE "0:"
    INDEX 01 00:53:66
  TRACK 62 AUDIO
    TITLE "10:cjc026_08892"
    INDEX 01 00:54:27
  TRACK 63 AUDIO
    TITLE "0:"
    INDEX 01 00:55:41
  TRACK 64 AUDIO
    TITLE "11:cjc026_08893"
    INDEX 01 00:56:03
  TRACK 65 AUDIO
    TITLE "0:"
    INDEX 01 00:57:36
  TRACK 66 AUDIO
    TITLE "12:cjc026_08894"
    INDEX 01 00:57:74
  TRACK 67 AUDIO
    TITLE "0:"
    INDEX 01 00:59:13
  TRACK 68 AUDIO
    TITLE "10:cjc026_08895"
    INDEX 01 00:59:48
  TRACK 69 AUDIO
    TITLE "0:"
    INDEX 01 01:01:01
  TRACK 70 AUDIO
    TITLE "11:cjc026_08896"
    INDEX 01 01:01:39
  TRACK 71 AUDIO
    TITLE "0:"
    INDEX 01 01:03:16
  TRACK 72 AUDIO
    TITLE "12:cjc026_08897"
    INDEX 01 01:03:51
  TRACK 73 AUDIO
    TITLE "0:"
    INDEX 01 01:05:01
